<svg xmlns="http://www.w3.org/2000/svg" xmlns:xlink="http://www.w3.org/1999/xlink" preserveAspectRatio="xMidYMid" width="40" height="59" viewBox="0 0 40 59" id="svg-1">
  <defs id="defs-2">
    <style id="style-3">
	.cls-1 { fill-rule: evenodd; }
</style>
  </defs>
  <path d="M22.020,57.125 L20.176,58.997 L18.172,57.302 C17.429,56.675 0.002,41.692 0.002,20.289 C0.002,9.100 8.973,-0.003 20.001,-0.003 C31.028,-0.003 39.999,9.100 39.999,20.289 C39.999,38.671 22.754,56.380 22.020,57.125 ZM20.001,5.795 C12.124,5.795 5.716,12.297 5.716,20.289 C5.716,34.926 15.548,46.564 19.854,50.957 C24.140,46.006 34.285,32.947 34.285,20.289 C34.285,12.297 27.877,5.795 20.001,5.795 ZM11.430,20.289 C11.430,15.493 15.274,11.592 20.001,11.592 C24.727,11.592 28.571,15.493 28.571,20.289 C28.571,25.084 24.727,28.985 20.001,28.985 C15.274,28.985 11.430,25.084 11.430,20.289 ZM22.857,20.289 C22.857,18.691 21.575,17.390 20.001,17.390 C18.426,17.390 17.144,18.691 17.144,20.289 C17.144,21.887 18.426,23.188 20.001,23.188 C21.575,23.188 22.857,21.887 22.857,20.289 Z" class="cls-1" fill="#edcaa5" fill-opacity="1" id="path-4" type="solidColor"></path>
</svg>